<?xml version="1.0" standalone="no"?>
<!DOCTYPE svg PUBLIC "-//W3C//DTD SVG 20010904//EN"
 "http://www.w3.org/TR/2001/REC-SVG-20010904/DTD/svg10.dtd">
<svg version="1.0" xmlns="http://www.w3.org/2000/svg"
 width="228.000000pt" height="228.000000pt" viewBox="0 0 228.000000 228.000000"
 preserveAspectRatio="xMidYMid meet">
<metadata>
Created by potrace 1.14, written by Peter Selinger 2001-2017
</metadata>
<g transform="translate(0.000000,228.000000) scale(0.100000,-0.100000)"
fill="#000000" stroke="none">
<path d="M990 2271 c0 -5 -8 -8 -17 -7 -10 2 -41 -2 -70 -9 -29 -7 -55 -10
-58 -7 -3 3 -5 1 -5 -4 0 -5 -12 -11 -27 -12 -15 -1 -32 -7 -37 -12 -6 -6 -15
-10 -22 -10 -6 0 -29 -7 -50 -16 -22 -9 -40 -15 -40 -13 -1 2 -11 -5 -23 -15
-12 -11 -21 -15 -21 -11 0 4 -8 2 -17 -6 -10 -8 -35 -24 -55 -34 -21 -11 -38
-23 -38 -27 0 -5 -7 -8 -15 -8 -8 0 -15 -4 -15 -9 0 -5 -8 -12 -18 -15 -30
-10 -255 -236 -235 -236 5 0 0 -5 -9 -11 -10 -5 -18 -17 -18 -24 0 -8 -4 -15
-10 -15 -5 0 -10 -7 -10 -15 0 -8 -4 -15 -8 -15 -5 0 -22 -28 -38 -62 -16 -35
-31 -65 -34 -68 -6 -6 -40 -96 -45 -120 -2 -8 -11 -42 -20 -75 -24 -85 -29
-133 -29 -275 0 -115 3 -152 19 -235 6 -34 41 -150 54 -180 26 -60 77 -160 84
-163 4 -2 7 -9 7 -15 0 -7 10 -24 23 -39 12 -15 33 -43 47 -63 40 -57 201
-215 218 -215 4 0 20 -11 35 -25 15 -14 27 -23 27 -20 0 4 12 -3 26 -14 15
-12 33 -21 41 -21 8 0 11 -5 8 -10 -3 -6 1 -10 9 -10 9 0 44 -13 78 -30 34
-16 69 -30 79 -30 10 0 21 -5 24 -10 4 -6 10 -8 15 -5 5 3 11 1 15 -5 4 -6 11
-8 16 -4 5 3 16 1 23 -5 8 -7 18 -11 22 -10 5 1 11 0 14 -1 47 -18 310 -31
310 -15 0 6 5 3 10 -5 5 -8 10 -11 10 -5 0 6 27 10 60 10 33 0 60 3 60 8 0 4
13 7 29 7 17 0 32 4 35 9 3 4 17 7 31 6 14 -2 25 1 25 6 0 5 10 9 23 9 13 0
27 3 31 8 4 4 11 7 14 8 7 1 48 17 94 37 16 7 28 16 28 20 0 5 4 6 9 2 5 -3
16 2 24 10 9 8 21 15 27 15 6 0 16 5 23 11 7 6 40 30 74 53 34 24 60 46 56 50
-3 3 -1 6 6 6 6 0 41 29 77 65 36 36 63 65 60 65 -3 0 11 17 29 37 19 21 35
41 35 45 0 4 14 27 30 52 17 24 44 75 62 113 17 37 34 70 37 73 3 3 7 14 9 25
3 23 6 33 16 56 4 9 8 27 10 41 1 13 6 29 10 36 4 7 8 26 8 42 1 17 4 30 7 30
3 0 6 27 6 60 0 33 2 60 5 60 3 0 6 9 6 19 0 11 -4 17 -8 15 -4 -3 -8 0 -8 5
0 6 4 11 9 11 10 0 7 43 -5 61 -5 8 -3 9 6 4 9 -5 11 -4 6 4 -5 7 -9 33 -11
59 -2 26 -7 63 -10 82 -4 19 -7 42 -7 50 0 8 -5 21 -11 28 -5 7 -7 15 -4 19 4
3 2 11 -3 18 -5 6 -12 22 -14 36 -3 13 -5 25 -7 27 -1 1 -2 5 -4 10 -9 35 -58
136 -68 143 -5 3 -8 10 -8 15 1 5 -20 43 -46 84 -49 78 -252 290 -277 290 -8
0 -16 4 -18 9 -7 20 -212 130 -243 131 -3 0 -19 6 -35 15 -16 8 -41 16 -55 17
-14 1 -25 5 -25 9 0 3 -6 6 -12 7 -7 1 -29 4 -48 7 -19 4 -47 8 -63 9 -15 2
-30 6 -33 9 -4 3 -16 2 -27 -4 -14 -8 -18 -8 -12 0 5 8 -25 11 -104 10 -71 -1
-109 -5 -105 -11 4 -6 -3 -5 -15 1 -12 7 -21 8 -21 2z m562 -693 c17 3 80 -22
106 -43 49 -38 99 -107 108 -147 1 -5 3 -9 4 -10 2 -2 4 -48 5 -102 l2 -99
-39 -39 c-22 -22 -42 -37 -45 -35 -2 3 -18 1 -34 -3 -17 -5 -29 -5 -29 1 0 5
-8 9 -18 9 -24 0 -70 45 -78 77 -4 14 -8 49 -9 77 -3 66 -2 63 -25 69 -14 3
-28 -4 -45 -25 -14 -16 -25 -27 -25 -25 0 3 -31 -26 -68 -63 -86 -86 -144
-115 -232 -114 -36 0 -74 3 -85 6 -32 8 -75 31 -75 40 0 4 -5 8 -11 8 -6 0
-52 40 -101 89 -66 66 -94 88 -108 84 -24 -6 -22 17 -24 -283 -1 -135 -6 -256
-10 -270 -13 -37 -63 -77 -102 -82 -46 -5 -85 12 -116 52 l-25 33 -1 286 c0
199 4 290 12 300 6 8 10 16 8 18 -6 7 11 53 20 53 5 0 7 4 4 9 -9 13 65 81
118 108 33 17 67 25 105 26 117 3 156 -16 278 -136 51 -50 99 -92 107 -93 7
-1 59 42 114 96 55 54 103 96 106 93 3 -4 6 -2 6 4 0 10 16 16 70 30 8 2 30 5
48 7 17 1 35 6 39 10 4 4 12 1 18 -6 5 -8 18 -12 27 -10z m202 -662 c20 -15
34 -32 31 -37 -4 -5 -1 -9 6 -9 7 0 10 -3 6 -6 -3 -3 -2 -16 3 -29 5 -13 6
-26 2 -30 -4 -4 -7 -10 -7 -14 0 -18 -51 -81 -66 -81 -9 0 -19 -3 -22 -6 -13
-13 -77 -9 -77 4 0 7 -4 11 -8 8 -5 -3 -21 6 -37 20 -15 13 -24 24 -20 24 5 0
4 5 -3 12 -7 7 -12 28 -11 47 2 108 117 163 203 97z"/>
</g>
</svg>
